<mxfile host="app.diagrams.net" modified="2023-12-24T19:18:30.900Z" agent="Mozilla/5.0 (Windows NT 10.0; Win64; x64) AppleWebKit/537.36 (KHTML, like Gecko) Chrome/120.0.0.0 Safari/537.36 Edg/120.0.0.0" version="22.1.11" etag="X2w4kpdg444jMXv1ZnQS" type="github">
  <diagram name="第 1 页" id="jFM_bRkAo_Z9jXmtW7PE">
    <mxGraphModel>
      <root>
        <mxCell id="0" />
        <mxCell id="1" parent="0" />
      </root>
    </mxGraphModel>
  </diagram>
</mxfile>
